<svg width="205" height="128" viewBox="0 0 205 128" fill="none" xmlns="http://www.w3.org/2000/svg">
<rect y="56.9731" width="55.8" height="70.9125" rx="27.9" fill="#C2E6BC"/>
<rect x="74.4014" y="26.748" width="55.8" height="101.137" rx="27.9" fill="#C2E6BC"/>
<rect x="146.476" y="0.0102539" width="55.8" height="127.875" rx="27.9" fill="#C2E6BC"/>
<g clip-path="url(#clip0_442_2877)">
<path fill-rule="evenodd" clip-rule="evenodd" d="M74.399 54.6475V59.5881C74.399 64.9158 66.9369 68.5975 61.6115 68.5975C56.1873 68.5975 50.0737 67.0967 45.9375 63.5871L53.624 110.803C54.9085 107.753 58.3019 105.797 61.6115 105.797C67.0485 105.797 75.4824 109.438 78.2411 114.123C78.2411 114.123 74.399 59.5892 74.399 54.6475Z" fill="#C2E6BC"/>
</g>
<g clip-path="url(#clip1_442_2877)">
<path fill-rule="evenodd" clip-rule="evenodd" d="M148.801 27.9102C148.801 32.7694 143.754 36.1488 138.896 36.0535C138.71 36.05 138.524 36.0477 138.338 36.0477C130.752 36.0477 122.437 33.9005 115.8 30.2247L130.201 99.9852V98.8982C130.201 94.7911 134.23 91.8477 138.338 91.8477C138.524 91.8477 138.71 91.8453 138.896 91.8418C143.754 91.7465 148.801 95.1259 148.801 99.9852V27.9102Z" fill="#C2E6BC"/>
</g>
<defs>
<clipPath id="clip0_442_2877">
<rect width="204.6" height="127.875" fill="white" transform="translate(0 0.0102539)"/>
</clipPath>
<clipPath id="clip1_442_2877">
<rect width="204.6" height="127.875" fill="white" transform="translate(0 0.0102539)"/>
</clipPath>
</defs>
</svg>
